HIERARCHY
ROOT Hips
{
	OFFSET 0.000000 0.000000 0.000000 
	CHANNELS 6 Xposition Yposition Zposition Zrotation Yrotation Xrotation
	JOINT LeftUpLeg
	{
		OFFSET 1.363060 -1.794630 0.839290 
		CHANNELS 3 Zrotation Yrotation Xrotation
		JOINT LeftLeg
		{
			OFFSET 2.448110 -6.726130 0.000000 
			CHANNELS 3 Zrotation Yrotation Xrotation
			JOINT LeftFoot
			{
				OFFSET 2.562200 -7.039590 0.000000 
				CHANNELS 3 Zrotation Yrotation Xrotation
				JOINT LeftToeBase
				{
					OFFSET 0.157640 -0.433110 2.322550 
					CHANNELS 3 Zrotation Yrotation Xrotation
					End Site
					{
						OFFSET 0.000000 0.000000 0.000000 
					}
				}
			}
		}
	}
	JOINT RightUpLeg
	{
		OFFSET -1.305520 -1.794630 0.839290 
		CHANNELS 3 Zrotation Yrotation Xrotation
		JOINT RightLeg
		{
			OFFSET -2.542530 -6.985550 0.000000 
			CHANNELS 3 Zrotation Yrotation Xrotation
			JOINT RightFoot
			{
				OFFSET -2.568260 -7.056230 0.000000 
				CHANNELS 3 Zrotation Yrotation Xrotation
				JOINT RightToeBase
				{
					OFFSET -0.164730 -0.452590 2.363150 
					CHANNELS 3 Zrotation Yrotation Xrotation
					End Site
					{
						OFFSET 0.000000 0.000000 0.000000 
					}
				}
			}
		}
	}
	JOINT Spine
	{
		OFFSET 0.028270 2.035590 -0.193380 
		CHANNELS 3 Zrotation Yrotation Xrotation
		JOINT Spine1
		{
			OFFSET 0.056720 2.048850 -0.042750 
			CHANNELS 3 Zrotation Yrotation Xrotation
			JOINT Neck1
			{
				OFFSET -0.054170 1.746240 0.172020 
				CHANNELS 3 Zrotation Yrotation Xrotation
				JOINT Head
				{
					OFFSET 0.104070 1.761360 -0.123970 
					CHANNELS 3 Zrotation Yrotation Xrotation
					End Site
					{
						OFFSET 0.000000 0.000000 0.000000 
					}
				}
			}
			JOINT LeftArm
			{
				OFFSET 3.362410 1.200890 -0.311210 
				CHANNELS 3 Zrotation Yrotation Xrotation
				JOINT LeftForeArm
				{
					OFFSET 4.983000 -0.000000 -0.000000 
					CHANNELS 3 Zrotation Yrotation Xrotation
					JOINT LeftHand
					{
						OFFSET 3.483560 -0.000000 -0.000000 
						CHANNELS 3 Zrotation Yrotation Xrotation
						JOINT LeftHandIndex1
						{
							OFFSET 0.715260 -0.000000 -0.000000 
							CHANNELS 3 Zrotation Yrotation Xrotation
							End Site
							{
								OFFSET 0.000000 0.000000 0.000000 
							}
						}
					}
				}
			}
			JOINT RightArm
			{
				OFFSET -3.136600 1.374050 -0.404650 
				CHANNELS 3 Zrotation Yrotation Xrotation
				JOINT RightForeArm
				{
					OFFSET -5.241900 -0.000000 -0.000000 
					CHANNELS 3 Zrotation Yrotation Xrotation
					JOINT RightHand
					{
						OFFSET -3.444170 -0.000000 -0.000000 
						CHANNELS 3 Zrotation Yrotation Xrotation
						JOINT RightHandIndex1
						{
							OFFSET -0.622530 -0.000000 -0.000000 
							CHANNELS 3 Zrotation Yrotation Xrotation
							End Site
							{
								OFFSET 0.000000 0.000000 0.000000 
							}
						}
					}
				}
			}
		}
	}
}
MOTION
Frames: 10
Frame Time: 0.041667
0.198611 17.771897 0.519359 -3.161173 4.110004 8.416615 -14.033281 -26.614330 -3.703747 -0.673156 4.006970 15.138080 -1.672649 10.004757 -8.912405 1.037400 -6.477900 -18.177400 24.453151 9.396035 2.156120 0.438446 1.244708 2.297950 0.717375 -5.713973 -5.927190 -0.423500 4.176700 -11.574300 5.368415 0.467509 -1.750706 1.239021 0.498751 -2.406789 13.739990 -16.357418 11.960220 6.927600 -7.745000 12.286900 -90.379721 -0.200517 32.913232 12.753767 -12.348132 -1.400825 1.572891 2.471267 23.839407 -7.125000 0.000000 0.000000 87.635795 -1.823309 25.091340 -21.766993 20.689407 -2.348569 -1.172711 0.993342 29.913397 7.125000 0.000000 0.000000 
0.202476 17.776473 0.517833 -3.189101 4.080064 8.446714 -14.039701 -26.554028 -3.827100 -0.653275 4.068370 15.302272 -1.733442 10.277180 -8.829054 1.411500 -7.514400 -21.248500 24.466307 9.433533 2.145586 0.436847 1.245303 2.299717 0.698022 -5.587299 -5.998036 -0.359400 3.851200 -10.658500 5.304177 0.472267 -1.793917 1.166492 0.498165 -2.412624 13.707330 -16.367915 11.996325 6.904400 -7.747400 12.301900 -90.359570 -0.258915 32.739522 12.680010 -12.241728 -1.378151 1.590564 2.432156 23.913311 -7.125000 0.000000 0.000000 87.666847 -1.864768 25.243430 -21.783039 20.700206 -2.344265 -1.143807 0.968886 29.790761 7.125000 0.000000 0.000000 
0.204815 17.777999 0.515393 -3.199228 4.067935 8.416659 -14.043550 -26.581540 -3.796381 -0.652734 4.071183 15.313700 -1.723443 10.243722 -8.896083 1.350100 -7.355900 -20.774100 24.470369 9.427965 2.195973 0.437500 1.246373 2.300654 0.696426 -5.584348 -6.029990 -0.378700 3.952400 -10.942700 5.320750 0.463136 -1.757272 1.146582 0.494294 -2.435353 13.648182 -16.350571 11.967926 6.875100 -7.742600 12.272600 -90.417174 -0.303152 32.336849 12.631366 -12.171166 -1.360541 1.606004 2.397587 24.231306 -7.125000 0.000000 0.000000 87.670794 -1.874051 25.357280 -21.785426 20.701513 -2.343357 -1.136779 0.961478 29.725095 7.125000 0.000000 0.000000 
0.205628 17.778202 0.512647 -3.206760 4.057428 8.427684 -14.034546 -26.602361 -3.806248 -0.654255 4.071237 15.314834 -1.720125 10.242265 -8.965090 1.314200 -7.261200 -20.491700 24.476840 9.444945 2.184188 0.437812 1.246311 2.300095 0.700550 -5.610851 -6.011971 -0.360900 3.859500 -10.681700 5.344715 0.453122 -1.730238 1.139180 0.489221 -2.422667 13.607551 -16.330288 11.923704 6.853300 -7.735400 12.234000 -90.464507 -0.312101 32.080928 12.626250 -12.163152 -1.356413 1.618168 2.381706 24.414882 -7.125000 0.000000 0.000000 87.664761 -1.872026 25.483782 -21.777828 20.691474 -2.340253 -1.122387 0.975081 29.626351 7.125000 0.000000 0.000000 
0.206544 17.776473 0.509291 -3.212979 4.063802 8.426233 -14.018283 -26.634639 -3.774002 -0.660956 4.047837 15.248534 -1.704994 10.161506 -8.927385 1.202500 -6.957400 -19.589100 24.483598 9.442105 2.176347 0.438419 1.245797 2.299423 0.706400 -5.650838 -5.992684 -0.344500 3.771400 -10.434500 5.360424 0.450132 -1.773338 1.133280 0.486041 -2.459786 13.640715 -16.324247 11.871168 6.873100 -7.735800 12.202400 -90.499655 -0.321231 31.845763 12.583036 -12.099763 -1.341273 1.614555 2.360616 24.593183 -7.125000 0.000000 0.000000 87.681238 -1.895769 25.553347 -21.749395 20.658554 -2.333602 -1.115553 0.987831 29.552591 7.125000 0.000000 0.000000 
0.207255 17.774846 0.506240 -3.191063 4.061791 8.439203 -14.034884 -26.666576 -3.735044 -0.668256 4.023365 15.178531 -1.688979 10.079010 -8.889898 1.077600 -6.598200 -18.530400 24.451928 9.443389 2.169100 0.438668 1.243225 2.298519 0.707769 -5.669252 -6.003507 -0.361800 3.864100 -10.694600 5.412724 0.426622 -1.967368 1.154210 0.470012 -2.560827 13.659671 -16.269497 11.880603 6.907000 -7.720300 12.186600 -90.575449 -0.242149 31.445011 12.529994 -12.017850 -1.320862 1.615856 2.325683 24.872119 -7.125000 0.000000 0.000000 87.667692 -2.017172 25.693457 -21.761850 20.666599 -2.337091 -1.111895 0.989239 29.535385 7.125000 0.000000 0.000000 
0.207560 17.775456 0.504308 -3.167228 4.047878 8.470911 -14.061208 -26.665187 -3.723194 -0.680591 3.992367 15.086995 -1.717844 10.194514 -8.799609 1.135000 -6.765900 -19.023800 24.417105 9.466939 2.139618 0.437816 1.240563 2.297345 0.706343 -5.659143 -5.994508 -0.392400 4.022500 -11.140000 5.461353 0.410421 -2.106833 1.174275 0.458722 -2.613239 13.646258 -16.224213 11.879806 6.920200 -7.709500 12.164900 -90.650996 -0.166870 31.267649 12.520288 -12.001415 -1.315436 1.612933 2.315271 24.993940 -7.125000 0.000000 0.000000 87.634768 -2.095234 25.803655 -21.751123 20.646695 -2.337364 -1.118631 1.000878 29.575756 7.125000 0.000000 0.000000 
0.207154 17.776270 0.501867 -3.120920 4.014257 8.480355 -14.116002 -26.639675 -3.711893 -0.691332 3.962474 15.001952 -1.755434 10.344209 -8.671744 1.207100 -6.970200 -19.627100 24.366325 9.500208 2.130926 0.436589 1.238850 2.296096 0.706999 -5.652814 -5.959171 -0.403900 4.080300 -11.302600 5.433548 0.420923 -2.134792 1.193837 0.464827 -2.638476 13.686854 -16.219164 11.841901 6.945200 -7.709700 12.148100 -90.658865 -0.160557 31.251450 12.512333 -11.989779 -1.313239 1.603720 2.318876 25.026673 -7.125000 0.000000 0.000000 87.609503 -2.125253 25.977848 -21.746371 20.637333 -2.340361 -1.132431 0.998811 29.404922 7.125000 0.000000 0.000000 
0.207357 17.776168 0.498613 -3.081054 3.970456 8.471602 -14.154510 -26.609729 -3.679072 -0.698448 3.939988 14.945172 -1.724316 10.211533 -8.733815 1.087500 -6.627800 -18.617200 24.319318 9.537256 2.141032 0.436784 1.237646 2.295337 0.708496 -5.669126 -5.966343 -0.409000 4.105700 -11.374200 5.385246 0.435397 -2.113709 1.202701 0.474226 -2.666140 13.720998 -16.220292 11.779947 6.957600 -7.708600 12.120400 -90.666519 -0.220210 30.930956 12.505444 -11.980323 -1.307680 1.579772 2.323534 25.548768 -7.125000 0.000000 0.000000 87.624530 -2.120331 26.005977 -21.748346 20.643420 -2.341000 -1.128582 1.000401 29.382260 7.125000 0.000000 0.000000 
0.208476 17.776778 0.496782 -3.015434 3.936999 8.477561 -14.222806 -26.590703 -3.630002 -0.704510 3.916963 14.891751 -1.682459 10.033344 -8.812818 0.921300 -6.115300 -17.119200 24.246829 9.571007 2.125914 0.437478 1.235866 2.293810 0.715362 -5.723455 -5.962189 -0.427400 4.195600 -11.627600 5.283560 0.438590 -2.038958 1.204678 0.478958 -2.650732 13.764907 -16.221344 11.728892 6.968600 -7.702500 12.106300 -90.656934 -0.301867 30.557943 12.513820 -11.986336 -1.299129 1.546146 2.311540 26.185145 -7.125000 0.000000 0.000000 87.666780 -2.057468 25.868168 -21.747855 20.652074 -2.335642 -1.103559 1.008625 29.591576 7.125000 0.000000 0.000000 
